Coordinates
version=1
nRows=10
nColumns=63
inDegrees=yes

Units are S.I. units (second, meters, Newtons, ...)
If the header above contains a line with 'inDegrees', this indicates whether rotational values are in degrees (yes) or radians (no).

endheader
time	pelvis_tilt	pelvis_list	pelvis_rotation	pelvis_tx	pelvis_ty	pelvis_tz	hip_flexion_r	hip_adduction_r	hip_rotation_r	knee_angle_r	knee_angle_r_beta	ankle_angle_r	subtalar_angle_r	mtp_angle_r	hip_flexion_l	hip_adduction_l	hip_rotation_l	knee_angle_l	knee_angle_l_beta	ankle_angle_l	subtalar_angle_l	mtp_angle_l	L5_S1_Flex_Ext	L5_S1_Lat_Bending	L5_S1_axial_rotation	L4_L5_Flex_Ext	L4_L5_Lat_Bending	L4_L5_axial_rotation	L3_L4_Flex_Ext	L3_L4_Lat_Bending	L3_L4_axial_rotation	L2_L3_Flex_Ext	L2_L3_Lat_Bending	L2_L3_axial_rotation	L1_L2_Flex_Ext	L1_L2_Lat_Bending	L1_L2_axial_rotation	L1_T12_Flex_Ext	L1_T12_Lat_Bending	L1_T12_axial_rotation	Abs_r3	Abs_r2	Abs_r1	Abs_t1	Abs_t2	neck_flexion	neck_bending	neck_rotation	arm_flex_r	arm_add_r	arm_rot_r	elbow_flex_r	pro_sup_r	wrist_flex_r	wrist_dev_r	arm_flex_l	arm_add_l	arm_rot_l	elbow_flex_l	pro_sup_l	wrist_flex_l	wrist_dev_l
2.457627	-5.630262	-3.027190	92.818057	0.236585	0.748181	0.687854	2.691770	-2.765014	-4.300212	5.220841	0.091121	22.041981	-7.028415	0.000000	2.260263	3.037057	3.995891	1.135299	0.019815	22.590495	-0.389544	0.000000	0.337591	-0.014694	-1.201334	0.626941	-0.019543	-1.276417	0.554629	-0.035727	-1.276417	0.385833	-0.035727	-1.051167	0.313487	-0.029964	-0.976084	0.192900	-0.022761	-0.901001	2.411381	-0.166221	-6.681459	0.000000	0.000000	27.888969	8.702638	10.581407	11.870616	-8.752429	56.012178	47.326788	40.232010	4.411552	32.145662	6.703910	-9.933406	44.499582	50.637738	72.189626	12.416531	16.722097
2.474576	-5.640339	-2.955306	93.130773	0.236003	0.748419	0.687296	2.477234	-2.793068	-4.500291	5.120328	0.089367	22.189697	-6.911879	0.000000	2.136330	3.065392	4.354020	1.095875	0.019127	22.530321	-0.425366	0.000000	0.346269	-0.013210	-1.259995	0.643055	-0.017569	-1.338744	0.568885	-0.032118	-1.338744	0.395750	-0.032118	-1.102495	0.321545	-0.026937	-1.023746	0.197858	-0.020462	-0.944996	2.473362	-0.149430	-7.007713	0.000000	0.000000	27.923283	8.691506	11.023466	11.887547	-8.735479	56.249583	47.216500	39.724165	4.699532	31.953264	6.615240	-9.853409	44.640569	50.429979	72.544179	12.378341	15.916879
2.491525	-5.646742	-2.893595	93.480970	0.235358	0.748628	0.686768	2.276591	-2.824864	-4.832446	5.035387	0.087884	22.335441	-6.724947	0.000000	2.029001	3.091667	4.716495	1.059914	0.018499	22.465982	-0.400749	0.000000	0.354807	-0.011240	-1.324366	0.658913	-0.014949	-1.407138	0.582913	-0.027328	-1.407138	0.405509	-0.027328	-1.158820	0.329474	-0.022920	-1.076047	0.202737	-0.017410	-0.993274	2.534353	-0.127147	-7.365724	0.000000	0.000000	27.950526	8.664453	11.457364	12.037504	-8.634414	56.877199	46.802219	40.127214	5.186927	31.340171	6.553008	-9.744987	44.938720	50.088593	72.551902	12.251846	14.973083
2.508475	-5.631625	-2.846948	93.848908	0.234633	0.748779	0.686319	2.109585	-2.839240	-5.202939	4.978652	0.086894	22.443972	-6.604921	0.000000	1.948921	3.101162	5.105494	1.028251	0.017946	22.401173	-0.386929	0.000000	0.362753	-0.005503	-1.387664	0.673669	-0.007319	-1.474393	0.595968	-0.013381	-1.474393	0.414591	-0.013381	-1.214206	0.336853	-0.011222	-1.127477	0.207277	-0.008525	-1.040748	2.591111	-0.062255	-7.717770	0.000000	0.000000	27.974088	8.552687	11.860289	12.319534	-8.459555	57.924022	46.028889	41.659153	5.719920	30.295370	6.535813	-9.579065	45.346158	49.574306	72.158553	12.119963	13.909064
2.525424	-5.590672	-2.829027	94.222153	0.233826	0.748836	0.686011	2.001155	-2.837912	-5.648269	4.958775	0.086547	22.523249	-6.485465	0.000000	1.920049	3.090681	5.437232	1.008929	0.017609	22.384955	-0.280309	0.000000	0.370810	0.005011	-1.444307	0.688631	0.006664	-1.534577	0.609204	0.012183	-1.534577	0.423799	0.012183	-1.263769	0.344334	0.010217	-1.173500	0.211881	0.007761	-1.083230	2.648659	0.056680	-8.032804	0.000000	0.000000	27.995278	8.366225	12.254083	12.679767	-8.236749	59.098428	44.904650	44.348012	6.148593	28.933530	6.619478	-9.386430	46.048871	48.896228	71.123789	11.708397	12.645068
2.542373	-5.517132	-2.852027	94.566242	0.232963	0.748777	0.685866	1.981343	-2.819174	-6.202489	4.996689	0.087209	22.601673	-6.270697	0.000000	1.954597	3.055599	5.778084	0.998271	0.017423	22.404485	-0.233104	0.000000	0.380224	0.021672	-1.492693	0.706113	0.028823	-1.585987	0.624669	0.052692	-1.585987	0.434557	0.052692	-1.306107	0.353076	0.044193	-1.212813	0.217260	0.033569	-1.119520	2.715899	0.245154	-8.301913	0.000000	0.000000	28.014903	8.097079	12.650365	13.124397	-7.978712	60.526080	43.423847	47.292489	6.315556	27.226965	6.694119	-9.109294	46.506320	48.090096	70.002393	11.106363	11.330139
2.559322	-5.410076	-2.919503	94.877599	0.232063	0.748596	0.685885	2.050620	-2.772996	-6.709195	5.078501	0.088637	22.623126	-6.173506	0.000000	2.055518	2.995052	6.180812	0.994056	0.017350	22.444986	-0.330461	0.000000	0.391359	0.044424	-1.533134	0.726792	0.059085	-1.628955	0.642963	0.108014	-1.628955	0.447284	0.108014	-1.341492	0.363416	0.090590	-1.245671	0.223622	0.068814	-1.149850	2.795436	0.502539	-8.526830	0.000000	0.000000	28.032826	7.773904	13.062633	13.597188	-7.719640	61.958643	41.675431	50.336950	6.192225	25.062537	6.742365	-8.774547	46.621344	47.200353	68.849829	10.186230	9.959551
2.576271	-5.276811	-3.015896	95.165184	0.231149	0.748322	0.686063	2.188916	-2.711801	-7.337004	5.202157	0.090795	22.648322	-5.951106	0.000000	2.208243	2.910772	6.496891	1.003979	0.017523	22.544223	-0.338887	0.000000	0.401539	0.072087	-1.571538	0.745698	0.095875	-1.669759	0.659688	0.175271	-1.669759	0.458919	0.175271	-1.375096	0.372869	0.146999	-1.276874	0.229439	0.111662	-1.178653	2.868152	0.815457	-8.740422	0.000000	0.000000	28.049157	7.465551	13.567369	14.083622	-7.473766	63.255842	39.737463	53.264110	5.780582	22.516268	6.720312	-8.432340	46.129291	46.307020	67.964176	8.952980	8.760820
2.593220	-5.140280	-3.136786	95.430067	0.230305	0.747958	0.686347	2.379395	-2.646571	-7.955259	5.352840	0.093425	22.648260	-5.775850	0.000000	2.400137	2.821255	6.804133	1.026613	0.017918	22.657027	-0.370589	0.000000	0.411687	0.099842	-1.609920	0.764544	0.132789	-1.710540	0.676361	0.242755	-1.710540	0.470517	0.242755	-1.408680	0.382293	0.203597	-1.308060	0.235238	0.154655	-1.207440	2.940641	1.129427	-8.953891	0.000000	0.000000	28.065064	7.189381	14.078788	14.554641	-7.247395	64.320535	37.703273	55.941092	5.014581	19.659118	6.597810	-8.225392	44.731849	45.534742	67.687077	7.700777	7.981122
2.610169	-5.016829	-3.264162	95.684879	0.229589	0.747525	0.686716	2.589003	-2.582750	-8.497574	5.510674	0.096179	22.600869	-5.739729	0.000000	2.605391	2.737758	7.180128	1.056647	0.018442	22.743562	-0.510089	0.000000	0.421177	0.124372	-1.645780	0.782169	0.165415	-1.748641	0.691952	0.302398	-1.748641	0.481364	0.302398	-1.440058	0.391105	0.253619	-1.337196	0.240661	0.192652	-1.234335	3.008428	1.406921	-9.153336	0.000000	0.000000	28.080219	6.921942	14.524985	15.009793	-7.072123	65.176686	35.638506	58.132342	3.939042	16.654431	6.597296	-8.375049	42.346594	45.092599	68.360659	6.610467	7.758737
